Coordinates
version=1
nRows=8
nColumns=40
inDegrees=yes

Units are S.I. units (second, meters, Newtons, ...)
Angles are in degrees.

endheader
time	pelvis_tilt	pelvis_list	pelvis_rotation	pelvis_tx	pelvis_ty	pelvis_tz	hip_flexion_r	hip_adduction_r	hip_rotation_r	knee_angle_r	knee_angle_r_beta	ankle_angle_r	subtalar_angle_r	mtp_angle_r	hip_flexion_l	hip_adduction_l	hip_rotation_l	knee_angle_l	knee_angle_l_beta	ankle_angle_l	subtalar_angle_l	mtp_angle_l	lumbar_extension	lumbar_bending	lumbar_rotation	arm_flex_r	arm_add_r	arm_rot_r	elbow_flex_r	pro_sup_r	wrist_flex_r	wrist_dev_r	arm_flex_l	arm_add_l	arm_rot_l	elbow_flex_l	pro_sup_l	wrist_flex_l	wrist_dev_l
     56.81000000	     -5.03578009	     -3.77589963	     -6.02894531	      1.03888312	      0.92998081	      0.43863549	     17.23428049	     -0.83881623	     -7.03207008	     16.75093420	     16.75093420	      6.73202492	      3.26727710	     -3.77979325	     -0.10076873	     -5.58107140	    -13.86124017	     10.94956707	     10.94956707	     14.71879602	     -5.54375150	     -4.92875352	     -7.69815739	      4.86285989	      2.01419769	    -18.13372414	    -12.65204976	      1.03061939	     30.60168384	     43.31868981	      0.00000000	      0.00000000	     32.62646322	    -15.37075091	    -12.94123990	     73.81111024	     45.05337081	      0.00000000	      0.00000000
     56.83200000	     -5.13306866	     -4.04181091	     -5.59518238	      1.04024374	      0.93014309	      0.44394101	     16.84991400	     -0.17918014	     -6.87464294	     16.74597252	     16.74597252	      7.10724663	      2.20688654	     -3.46405156	     -0.08639476	     -6.45421448	    -14.32024389	     11.59056704	     11.59056704	     15.34692531	     -4.13212525	     -4.19211997	     -7.63815011	      5.00098697	      1.84457998	    -17.93511626	    -12.84369102	      1.41805307	     30.63162496	     43.38204283	      0.00000000	      0.00000000	     31.68869677	    -15.45264654	    -12.27019480	     73.55321738	     45.09111763	      0.00000000	      0.00000000
     56.85400000	     -5.18309609	     -4.13585317	     -5.17669721	      1.04170286	      0.93029359	      0.44899081	     16.50154038	      0.16469655	     -7.22876941	     16.88895309	     16.88895309	      7.53357660	      2.04078124	     -3.60620383	     -0.32289473	     -6.95856441	    -14.10510034	     11.70886634	     11.70886634	     15.27559873	     -3.94833454	     -4.02464346	     -7.60760286	      4.98090993	      1.92921836	    -17.80600515	    -12.92098847	      1.44843418	     30.64553961	     43.39017956	      0.00000000	      0.00000000	     30.70723192	    -14.96206411	    -12.06361996	     73.23730024	     45.07542069	      0.00000000	      0.00000000
     56.87600000	     -5.22742728	     -4.21618911	     -4.77583972	      1.04320520	      0.93043366	      0.45419072	     16.10383528	      0.52517761	     -7.55580520	     16.95423222	     16.95423222	      7.98878645	      1.87734258	     -3.74195701	     -0.52516934	     -7.47262841	    -13.87492539	     11.90376915	     11.90376915	     15.19495095	     -3.78587986	     -3.87821626	     -7.59069365	      4.91876615	      2.05624237	    -17.55545702	    -12.98767451	      1.46411291	     30.69517909	     43.39571188	      0.00000000	      0.00000000	     29.55006388	    -14.45588533	    -11.83553447	     72.81931700	     45.05231240	      0.00000000	      0.00000000
     56.89800000	     -5.21311386	     -4.35090711	     -4.37521811	      1.04478593	      0.93059496	      0.45926787	     15.61328284	      0.93494252	     -7.88107359	     16.97441690	     16.97441690	      8.39452499	      1.75525168	     -3.84990434	     -0.71768688	     -8.06071489	    -13.64379808	     12.25074301	     12.25074301	     15.21662302	     -3.65451455	     -3.71185380	     -7.58952695	      4.97869874	      2.15394525	    -17.16189628	    -13.07876843	      1.47823312	     30.75895312	     43.40315861	      0.00000000	      0.00000000	     28.04352060	    -13.86307704	    -11.53072963	     72.20042545	     45.01972523	      0.00000000	      0.00000000
     56.92000000	     -5.23573529	     -4.71591859	     -3.92395179	      1.04634332	      0.93072832	      0.46467994	     14.96806025	      1.65925479	     -8.28058955	     16.65838639	     16.65838639	      8.75807981	      1.62929478	     -3.62351112	     -0.25885627	     -9.27517511	    -14.25271894	     13.99474710	     13.99474710	     17.15262105	     -1.60855733	     -0.41799531	     -7.43775641	      5.25317742	      1.66277195	    -15.73830959	    -13.28126895	      2.29604594	     29.42372229	     43.56990584	      0.00000000	      0.00000000	     26.37970004	    -14.14665853	    -10.58582953	     70.47849660	     45.06928465	      0.00000000	      0.00000000
     56.94200000	     -5.17890733	     -4.87001624	     -3.54410618	      1.04787650	      0.93074315	      0.46982370	     14.37822716	      2.12449317	     -8.58457914	     16.54155957	     16.54155957	      9.17736809	      1.54029478	     -3.69382959	     -0.17040912	     -9.94783560	    -13.69324246	     14.92712597	     14.92712597	     17.31478365	     -1.95844978	     -0.11485386	     -7.47305731	      5.32633201	      1.71767955	    -14.87985635	    -13.41056070	      2.34717679	     29.50459522	     43.60162518	      0.00000000	      0.00000000	     24.56065179	    -13.60818842	    -10.33676686	     69.41707562	     45.05551250	      0.00000000	      0.00000000
     56.96400000	     -4.95821141	     -4.84505747	     -3.22304844	      1.04956133	      0.93087565	      0.47494305	     13.75187466	      2.38686514	     -8.75272400	     16.68722986	     16.68722986	      9.69549556	      1.37629211	     -3.85756766	     -0.31665463	    -10.40682221	    -13.26842652	     15.74511595	     15.74511595	     17.26656634	     -2.15537817	     -0.09587052	     -7.66274819	      5.15918688	      2.04602997	    -13.97656448	    -13.38313778	      2.36843747	     29.69044293	     43.60838009	      0.00000000	      0.00000000	     22.58356549	    -12.73793858	     -9.98456603	     68.44131023	     45.01108489	      0.00000000	      0.00000000
